<svg xmlns="http://www.w3.org/2000/svg" xmlns:xlink="http://www.w3.org/1999/xlink" width="500" zoomAndPan="magnify" viewBox="0 0 375 374.999991" height="500" preserveAspectRatio="xMidYMid meet" version="1.0"><defs><g/><clipPath id="d5e65e448e"><path d="M 293.765625 153.523438 L 342.515625 153.523438 L 342.515625 202 L 293.765625 202 Z M 293.765625 153.523438 " clip-rule="nonzero"/></clipPath><clipPath id="c613fff2dd"><rect x="0" width="275" y="0" height="36"/></clipPath></defs><g clip-path="url(#d5e65e448e)"><path fill="#f14902" d="M 337.605469 173.175781 L 322.488281 173.175781 L 322.488281 158.058594 C 322.488281 155.554688 320.460938 153.523438 317.953125 153.523438 C 315.449219 153.523438 313.417969 155.554688 313.417969 158.058594 L 313.417969 173.175781 L 298.300781 173.175781 C 295.796875 173.175781 293.765625 175.207031 293.765625 177.710938 C 293.765625 180.214844 295.796875 182.246094 298.300781 182.246094 L 313.417969 182.246094 L 313.417969 197.363281 C 313.417969 199.867188 315.449219 201.898438 317.953125 201.898438 C 320.460938 201.898438 322.488281 199.867188 322.488281 197.363281 L 322.488281 182.246094 L 337.605469 182.246094 C 340.113281 182.246094 342.140625 180.214844 342.140625 177.710938 C 342.140625 175.207031 340.113281 173.175781 337.605469 173.175781 Z M 337.605469 173.175781 " fill-opacity="1" fill-rule="nonzero"/></g><g transform="matrix(1, 0, 0, 1, 38, 184)"><g clip-path="url(#c613fff2dd)"><g fill="#ffffff" fill-opacity="1"><g transform="translate(1.065403, 28.40876)"><g><path d="M 38.796875 0 L 28.96875 0 L 26.796875 -3.78125 L 12.234375 -3.78125 L 10.0625 0 L 0.234375 0 L 15.015625 -23.078125 L 24.015625 -23.078125 Z M 23.53125 -9.5 L 19.53125 -16.5 L 15.5 -9.5 Z M 23.53125 -9.5 "/></g></g></g><g fill="#ffffff" fill-opacity="1"><g transform="translate(43.399949, 28.40876)"><g><path d="M 12.265625 0 L 2.578125 0 L 2.578125 -23.09375 L 18.328125 -23.09375 C 22.097656 -23.09375 25.140625 -22.8125 27.453125 -22.25 C 29.765625 -21.6875 31.453125 -20.800781 32.515625 -19.59375 C 33.578125 -18.382812 34.109375 -16.8125 34.109375 -14.875 C 34.109375 -12.945312 33.578125 -11.378906 32.515625 -10.171875 C 31.453125 -8.960938 29.765625 -8.078125 27.453125 -7.515625 C 25.140625 -6.953125 22.097656 -6.671875 18.328125 -6.671875 L 12.265625 -6.671875 Z M 12.265625 -12.359375 L 17.796875 -12.375 C 19.347656 -12.375 20.566406 -12.4375 21.453125 -12.5625 C 22.347656 -12.6875 23.003906 -12.859375 23.421875 -13.078125 C 23.847656 -13.304688 24.117188 -13.570312 24.234375 -13.875 C 24.359375 -14.1875 24.421875 -14.519531 24.421875 -14.875 C 24.421875 -15.238281 24.359375 -15.570312 24.234375 -15.875 C 24.117188 -16.1875 23.847656 -16.453125 23.421875 -16.671875 C 23.003906 -16.898438 22.347656 -17.078125 21.453125 -17.203125 C 20.566406 -17.328125 19.347656 -17.390625 17.796875 -17.390625 L 12.265625 -17.390625 Z M 12.265625 -12.359375 "/></g></g></g><g fill="#ffffff" fill-opacity="1"><g transform="translate(82.096373, 28.40876)"><g><path d="M 34.109375 0 L 24.953125 0 C 24.535156 -0.582031 24.238281 -1.320312 24.0625 -2.21875 C 23.914062 -2.914062 23.691406 -3.597656 23.390625 -4.265625 C 23.085938 -4.941406 22.566406 -5.5 21.828125 -5.9375 C 21.097656 -6.382812 20.007812 -6.628906 18.5625 -6.671875 L 12.265625 -6.671875 L 12.265625 0 L 2.578125 0 L 2.578125 -23.09375 L 18.328125 -23.09375 C 22.097656 -23.09375 25.140625 -22.8125 27.453125 -22.25 C 29.765625 -21.6875 31.453125 -20.800781 32.515625 -19.59375 C 33.578125 -18.382812 34.109375 -16.8125 34.109375 -14.875 C 34.109375 -13.25 33.738281 -11.882812 33 -10.78125 C 32.269531 -9.675781 31.113281 -8.800781 29.53125 -8.15625 C 31.0625 -7.53125 32.050781 -6.773438 32.5 -5.890625 C 32.957031 -5.003906 33.242188 -4.03125 33.359375 -2.96875 C 33.460938 -2.019531 33.710938 -1.03125 34.109375 0 Z M 12.265625 -12.359375 L 17.796875 -12.375 C 19.347656 -12.375 20.566406 -12.441406 21.453125 -12.578125 C 22.347656 -12.722656 23.003906 -12.914062 23.421875 -13.15625 C 23.847656 -13.394531 24.117188 -13.660156 24.234375 -13.953125 C 24.359375 -14.253906 24.421875 -14.5625 24.421875 -14.875 C 24.421875 -15.1875 24.359375 -15.492188 24.234375 -15.796875 C 24.117188 -16.097656 23.847656 -16.367188 23.421875 -16.609375 C 23.003906 -16.847656 22.347656 -17.035156 21.453125 -17.171875 C 20.566406 -17.316406 19.347656 -17.390625 17.796875 -17.390625 L 12.265625 -17.390625 Z M 12.265625 -12.359375 "/></g></g></g><g fill="#ffffff" fill-opacity="1"><g transform="translate(120.792797, 28.40876)"><g><path d="M 30.390625 0 L 2.578125 0 L 2.578125 -23.09375 L 29.125 -23.09375 L 29.125 -17.390625 L 12.265625 -17.390625 L 12.265625 -13.765625 L 26.515625 -13.765625 L 26.515625 -9.328125 L 12.265625 -9.328125 L 12.265625 -5.71875 L 30.390625 -5.71875 Z M 30.390625 0 "/></g></g></g><g fill="#ffffff" fill-opacity="1"><g transform="translate(155.770606, 28.40876)"><g><path d="M 36.84375 0 L 25.328125 0 L 12.265625 -15.625 L 12.265625 0 L 2.578125 0 L 2.578125 -23.09375 L 14.109375 -23.09375 L 27.15625 -7.546875 L 27.15625 -23.09375 L 36.84375 -23.09375 Z M 36.84375 0 "/></g></g></g><g fill="#ffffff" fill-opacity="1"><g transform="translate(198.491501, 28.40876)"><g><path d="M 18.03125 0 L 2.578125 0 L 2.578125 -23.09375 L 18.03125 -23.09375 C 24.351562 -23.09375 28.898438 -22.207031 31.671875 -20.4375 C 33.898438 -19.007812 35.171875 -17.066406 35.484375 -14.609375 C 35.617188 -13.546875 35.6875 -12.523438 35.6875 -11.546875 C 35.6875 -10.566406 35.617188 -9.539062 35.484375 -8.46875 C 35.347656 -7.40625 34.988281 -6.367188 34.40625 -5.359375 C 33.832031 -4.359375 32.914062 -3.457031 31.65625 -2.65625 C 30.394531 -1.851562 28.664062 -1.207031 26.46875 -0.71875 C 24.28125 -0.238281 21.46875 0 18.03125 0 Z M 17.109375 -5.71875 C 22.035156 -5.71875 24.820312 -6.960938 25.46875 -9.453125 C 25.632812 -10.148438 25.71875 -10.847656 25.71875 -11.546875 C 25.71875 -12.253906 25.628906 -12.953125 25.453125 -13.640625 C 25.273438 -14.335938 24.898438 -14.96875 24.328125 -15.53125 C 23.753906 -16.09375 22.894531 -16.539062 21.75 -16.875 C 20.601562 -17.21875 19.054688 -17.390625 17.109375 -17.390625 L 12.265625 -17.390625 L 12.265625 -5.71875 Z M 17.109375 -5.71875 "/></g></g></g><g fill="#ffffff" fill-opacity="1"><g transform="translate(238.765508, 28.40876)"><g><path d="M 30.390625 0 L 2.578125 0 L 2.578125 -23.09375 L 29.125 -23.09375 L 29.125 -17.390625 L 12.265625 -17.390625 L 12.265625 -13.765625 L 26.515625 -13.765625 L 26.515625 -9.328125 L 12.265625 -9.328125 L 12.265625 -5.71875 L 30.390625 -5.71875 Z M 30.390625 0 "/></g></g></g></g></g></svg>